%TF.GenerationSoftware,KiCad,Pcbnew,8.0.4*%
%TF.CreationDate,2024-08-25T19:59:21+07:00*%
%TF.ProjectId,NCR80 ALPS SKFL,4e435238-3020-4414-9c50-5320534b464c,rev?*%
%TF.SameCoordinates,Original*%
%TF.FileFunction,Soldermask,Top*%
%TF.FilePolarity,Negative*%
%FSLAX46Y46*%
G04 Gerber Fmt 4.6, Leading zero omitted, Abs format (unit mm)*
G04 Created by KiCad (PCBNEW 8.0.4) date 2024-08-25 19:59:21*
%MOMM*%
%LPD*%
G01*
G04 APERTURE LIST*
%ADD10C,2.000000*%
%ADD11O,3.000000X2.000000*%
%ADD12C,2.500000*%
%ADD13C,2.600000*%
%ADD14C,4.700000*%
%ADD15R,1.800000X1.800000*%
%ADD16C,1.800000*%
%ADD17O,2.500000X2.000000*%
%ADD18R,1.700000X1.700000*%
%ADD19O,1.700000X1.700000*%
G04 APERTURE END LIST*
D10*
X260678700Y-99125000D02*
X259008750Y-99125000D01*
X194075100Y-134450121D02*
X192875100Y-134450121D01*
X287008800Y-104335000D02*
X288678750Y-104335000D01*
X44121300Y-123385000D02*
G75*
G02*
X43621248Y-122877900I100J500200D01*
G01*
X111234900Y-137224705D02*
G75*
G02*
X111734895Y-137724700I0J-499995D01*
G01*
X282087500Y-70824800D02*
X282087500Y-69621059D01*
X45791200Y-118175000D02*
G75*
G02*
X46291251Y-118682171I-100J-500200D01*
G01*
X43621250Y-122877900D02*
X43621250Y-118675000D01*
X288678700Y-99125000D02*
G75*
G02*
X289178749Y-99618029I-100J-500200D01*
G01*
X286508750Y-99625000D02*
X286508750Y-103841900D01*
X279887084Y-81575000D02*
G75*
G02*
X280383100Y-81075000I500016J0D01*
G01*
X193065107Y-137724700D02*
G75*
G02*
X193565100Y-137224707I499993J0D01*
G01*
X247746250Y-118175000D02*
X249416200Y-118175000D01*
X123875100Y-132250121D02*
X122671359Y-132250121D01*
X100647997Y-140883521D02*
X100647997Y-126684221D01*
X195736607Y-128974200D02*
X195736607Y-124764205D01*
X122675100Y-134450121D02*
X123875100Y-134450121D01*
X289390000Y-66235000D02*
G75*
G02*
X288890000Y-65735000I0J500000D01*
G01*
X290416200Y-118175000D02*
G75*
G02*
X290916249Y-118668029I-100J-500200D01*
G01*
X18291250Y-118682171D02*
X18291250Y-122885030D01*
X122175107Y-132750100D02*
X122175107Y-133955296D01*
X15621250Y-122885000D02*
X15621250Y-118675000D01*
X255916100Y-118175000D02*
G75*
G02*
X256416249Y-118668029I0J-500200D01*
G01*
X260890000Y-61525000D02*
G75*
G02*
X261390000Y-61025000I500000J0D01*
G01*
X290916250Y-122885000D02*
G75*
G02*
X290416250Y-123385050I-500050J0D01*
G01*
X283916100Y-118175000D02*
G75*
G02*
X284416249Y-118668029I0J-500200D01*
G01*
X17791280Y-123385000D02*
X16121250Y-123385000D01*
X279887100Y-82775000D02*
X279887084Y-82775000D01*
X247246250Y-122877900D02*
X247246250Y-118675000D01*
X261390000Y-66235000D02*
G75*
G02*
X260890000Y-65735000I0J500000D01*
G01*
X195735107Y-141934700D02*
G75*
G02*
X195235100Y-142434707I-500007J0D01*
G01*
X256416250Y-122885000D02*
X256416250Y-118668029D01*
X192375107Y-133944904D02*
X192375107Y-132750100D01*
X180424893Y-132749700D02*
X180424893Y-133949700D01*
X289178750Y-103835000D02*
X289178750Y-99618029D01*
X263060000Y-61025000D02*
X261390000Y-61025000D01*
X122675100Y-134450121D02*
G75*
G02*
X122175106Y-133955296I0J500021D01*
G01*
X109568216Y-137224705D02*
X111234900Y-137224705D01*
X204049997Y-126684221D02*
X200749997Y-126684221D01*
X195735107Y-141934700D02*
X195735107Y-137724705D01*
X261390000Y-66235000D02*
X263060000Y-66235000D01*
X279887500Y-69624800D02*
X279887500Y-70824786D01*
X111734893Y-141934700D02*
G75*
G02*
X111234893Y-142434693I-499993J0D01*
G01*
X109564900Y-129474705D02*
X111234893Y-129474705D01*
X260678700Y-99125000D02*
G75*
G02*
X261178749Y-99618029I-100J-500200D01*
G01*
X109064893Y-124764700D02*
G75*
G02*
X109561436Y-124264705I500007J0D01*
G01*
X195235100Y-137224705D02*
X193565100Y-137224705D01*
X100647997Y-126684221D02*
X103947997Y-126684221D01*
X124375107Y-133950100D02*
G75*
G02*
X123875100Y-134450107I-500007J0D01*
G01*
X286508750Y-99625000D02*
G75*
G02*
X287008750Y-99124950I500050J0D01*
G01*
X109064893Y-137724700D02*
G75*
G02*
X109568216Y-137224704I500007J0D01*
G01*
X253746250Y-118675000D02*
G75*
G02*
X254246250Y-118174950I500050J0D01*
G01*
X182124900Y-132249705D02*
X180921436Y-132249705D01*
X254246300Y-123385000D02*
X255916250Y-123385000D01*
X182124900Y-132249705D02*
G75*
G02*
X182624895Y-132749700I0J-499995D01*
G01*
X193065107Y-137724700D02*
X193065107Y-141938016D01*
X112424893Y-133949700D02*
X112424893Y-132749700D01*
X193565100Y-142434705D02*
G75*
G02*
X193065106Y-141938016I0J500005D01*
G01*
X282087500Y-70824800D02*
G75*
G02*
X281591105Y-71324787I-500000J0D01*
G01*
X247746300Y-123385000D02*
G75*
G02*
X247246248Y-122877900I100J500200D01*
G01*
X182624893Y-133949700D02*
X182624893Y-132749700D01*
X111234893Y-142434705D02*
X109564900Y-142434705D01*
X111234900Y-124264705D02*
X109561436Y-124264705D01*
X280387100Y-83275000D02*
G75*
G02*
X279887100Y-82775000I0J500000D01*
G01*
X263060000Y-61025000D02*
G75*
G02*
X263560000Y-61525000I0J-500000D01*
G01*
X123875100Y-134450107D02*
X123875100Y-134450121D01*
X43621250Y-118675000D02*
G75*
G02*
X44121250Y-118174950I500050J0D01*
G01*
X256416250Y-122885000D02*
G75*
G02*
X255916250Y-123385050I-500050J0D01*
G01*
X288890000Y-61525000D02*
G75*
G02*
X289390000Y-61025000I500000J0D01*
G01*
X17791100Y-118175000D02*
G75*
G02*
X18291251Y-118682171I0J-500200D01*
G01*
X111734893Y-128974700D02*
X111734893Y-124764700D01*
X195236600Y-124264205D02*
G75*
G02*
X195736595Y-124764205I0J-499995D01*
G01*
X281587500Y-69124786D02*
G75*
G02*
X282087500Y-69621059I0J-500014D01*
G01*
X288246250Y-118675000D02*
G75*
G02*
X288746250Y-118174950I500050J0D01*
G01*
X283916100Y-118175000D02*
X282246250Y-118175000D01*
X282246400Y-123385000D02*
X283916250Y-123385000D01*
X195235100Y-137224705D02*
G75*
G02*
X195735095Y-137724705I0J-499995D01*
G01*
X200749997Y-140883521D02*
X204049997Y-140883521D01*
X193066607Y-124764200D02*
X193066607Y-128977516D01*
X46291250Y-122885000D02*
G75*
G02*
X45791250Y-123385050I-500050J0D01*
G01*
X288890000Y-65735000D02*
X288890000Y-61525000D01*
X194575107Y-133950100D02*
G75*
G02*
X194075100Y-134450107I-500007J0D01*
G01*
X120450107Y-133350121D02*
G75*
G02*
X114150107Y-133350121I-3150000J0D01*
G01*
X114150107Y-133350121D02*
G75*
G02*
X120450107Y-133350121I3150000J0D01*
G01*
X204049997Y-140883521D02*
X204049997Y-126684221D01*
X195736607Y-128974200D02*
G75*
G02*
X195236600Y-129474207I-500007J0D01*
G01*
X193066607Y-124764200D02*
G75*
G02*
X193566600Y-124264207I499993J0D01*
G01*
X247246250Y-118675000D02*
G75*
G02*
X247746250Y-118174950I500050J0D01*
G01*
X18291250Y-122885030D02*
G75*
G02*
X17791280Y-123384950I-499950J30D01*
G01*
X281587100Y-81075000D02*
X280383100Y-81075000D01*
X282087084Y-82775000D02*
G75*
G02*
X281587084Y-83274984I-499984J0D01*
G01*
X280387500Y-71324786D02*
X281591105Y-71324786D01*
X261178750Y-103835000D02*
X261178750Y-99618029D01*
X192878841Y-132250121D02*
X194075100Y-132250121D01*
X192875100Y-134450121D02*
G75*
G02*
X192375106Y-133944904I0J500021D01*
G01*
X123875100Y-132250121D02*
G75*
G02*
X124375079Y-132750121I0J-499979D01*
G01*
X259008800Y-104335000D02*
X260678750Y-104335000D01*
X249416250Y-123385000D02*
X247746300Y-123385000D01*
X280387100Y-83275000D02*
X281587084Y-83275000D01*
X180924900Y-134449705D02*
X182124893Y-134449705D01*
X249416200Y-118175000D02*
G75*
G02*
X249916251Y-118682171I-100J-500200D01*
G01*
X280387500Y-69124800D02*
X280387500Y-69124786D01*
X288746300Y-123385000D02*
G75*
G02*
X288246250Y-122891900I100J500200D01*
G01*
X289178750Y-103835000D02*
G75*
G02*
X288678750Y-104335050I-500050J0D01*
G01*
X192375107Y-132750100D02*
G75*
G02*
X192878841Y-132250121I499993J0D01*
G01*
X103947997Y-126684221D02*
X103947997Y-140883521D01*
X280387500Y-71324786D02*
G75*
G02*
X279887514Y-70824786I0J499986D01*
G01*
X284416250Y-122885000D02*
X284416250Y-118668029D01*
X193566600Y-129474205D02*
X195236600Y-129474205D01*
X282246400Y-123385000D02*
G75*
G02*
X281746250Y-122891900I0J500200D01*
G01*
X16121250Y-118175000D02*
X17791100Y-118175000D01*
X44121250Y-118175000D02*
X45791200Y-118175000D01*
X110724900Y-134449705D02*
X111924893Y-134449705D01*
X260890000Y-61525000D02*
X260890000Y-65735000D01*
X281746250Y-118675000D02*
X281746250Y-122891900D01*
X284416250Y-122885000D02*
G75*
G02*
X283916250Y-123385050I-500050J0D01*
G01*
X249916250Y-122885000D02*
G75*
G02*
X249416250Y-123385050I-500050J0D01*
G01*
X287008800Y-104335000D02*
G75*
G02*
X286508750Y-103841900I100J500200D01*
G01*
X111734893Y-128974700D02*
G75*
G02*
X111234893Y-129474693I-499993J0D01*
G01*
X109564900Y-142434705D02*
G75*
G02*
X109064895Y-141934700I0J500005D01*
G01*
X253746250Y-118675000D02*
X253746250Y-122891900D01*
X109064893Y-141934700D02*
X109064893Y-137724700D01*
X111234900Y-124264705D02*
G75*
G02*
X111734895Y-124764700I0J-499995D01*
G01*
X249916250Y-118682171D02*
X249916250Y-122885000D01*
X109564900Y-129474705D02*
G75*
G02*
X109064895Y-128974700I0J500005D01*
G01*
X288246250Y-118675000D02*
X288246250Y-122891900D01*
X180924900Y-134449705D02*
G75*
G02*
X180424895Y-133949700I0J500005D01*
G01*
X45791250Y-123385000D02*
X44121300Y-123385000D01*
X182624893Y-133949700D02*
G75*
G02*
X182124893Y-134449693I-499993J0D01*
G01*
X193566600Y-129474205D02*
G75*
G02*
X193066606Y-128977516I0J500005D01*
G01*
X282087084Y-82775000D02*
X282087084Y-81571001D01*
X46291250Y-118682171D02*
X46291250Y-122885000D01*
X190649893Y-133350121D02*
G75*
G02*
X184349893Y-133350121I-3150000J0D01*
G01*
X184349893Y-133350121D02*
G75*
G02*
X190649893Y-133350121I3150000J0D01*
G01*
X110224893Y-132749700D02*
G75*
G02*
X110721436Y-132249705I500007J0D01*
G01*
X290416200Y-118175000D02*
X288746250Y-118175000D01*
X291560000Y-61525000D02*
X291560000Y-65735000D01*
X103947997Y-140883521D02*
X100647997Y-140883521D01*
X109064893Y-124764700D02*
X109064893Y-128974700D01*
X200749997Y-126684221D02*
X200749997Y-140883521D01*
X111924900Y-132249705D02*
X110721436Y-132249705D01*
X291560000Y-65735000D02*
G75*
G02*
X291060000Y-66235000I-500000J0D01*
G01*
X254246300Y-123385000D02*
G75*
G02*
X253746250Y-122891900I100J500200D01*
G01*
X279887084Y-81575000D02*
X279887084Y-82775000D01*
X281587100Y-81075000D02*
G75*
G02*
X282087084Y-81571001I0J-500000D01*
G01*
X284137500Y-76200000D02*
G75*
G02*
X277837500Y-76200000I-3150000J0D01*
G01*
X277837500Y-76200000D02*
G75*
G02*
X284137500Y-76200000I3150000J0D01*
G01*
X263560000Y-65735000D02*
X263560000Y-61525000D01*
X180424893Y-132749700D02*
G75*
G02*
X180921436Y-132249705I500007J0D01*
G01*
X281746250Y-118675000D02*
G75*
G02*
X282246250Y-118174950I500050J0D01*
G01*
X122175107Y-132750100D02*
G75*
G02*
X122671359Y-132250121I499993J0D01*
G01*
X112424893Y-133949700D02*
G75*
G02*
X111924893Y-134449693I-499993J0D01*
G01*
X124375107Y-133950100D02*
X124375107Y-132750121D01*
X194075100Y-134450107D02*
X194075100Y-134450121D01*
X259008800Y-104335000D02*
G75*
G02*
X258508750Y-103841900I100J500200D01*
G01*
X279887500Y-69624800D02*
G75*
G02*
X280387500Y-69124800I500000J0D01*
G01*
X15621250Y-118675000D02*
G75*
G02*
X16121250Y-118174950I500050J0D01*
G01*
X263560000Y-65735000D02*
G75*
G02*
X263060000Y-66235000I-500000J0D01*
G01*
X110224893Y-132749700D02*
X110224893Y-133949700D01*
X258508750Y-99625000D02*
X258508750Y-103841900D01*
X195236600Y-124264205D02*
X193566600Y-124264205D01*
X289390000Y-61025000D02*
X291060000Y-61025000D01*
X291060000Y-66235000D02*
X289390000Y-66235000D01*
X281587500Y-69124786D02*
X280387500Y-69124786D01*
X258508750Y-99625000D02*
G75*
G02*
X259008750Y-99124950I500050J0D01*
G01*
X261178750Y-103835000D02*
G75*
G02*
X260678750Y-104335050I-500050J0D01*
G01*
X16121250Y-123385000D02*
G75*
G02*
X15621300Y-122885000I50J500000D01*
G01*
X193565100Y-142434705D02*
X195235100Y-142434705D01*
X255916100Y-118175000D02*
X254246250Y-118175000D01*
X111924900Y-132249705D02*
G75*
G02*
X112424895Y-132749700I0J-499995D01*
G01*
X288746300Y-123385000D02*
X290416250Y-123385000D01*
X288678700Y-99125000D02*
X287008750Y-99125000D01*
X111734893Y-137724700D02*
X111734893Y-141934700D01*
X194575107Y-132750121D02*
X194575107Y-133950100D01*
X291060000Y-61025000D02*
G75*
G02*
X291560000Y-61525000I0J-500000D01*
G01*
X290916250Y-122885000D02*
X290916250Y-118668029D01*
X194075100Y-132250121D02*
G75*
G02*
X194575079Y-132750121I0J-499979D01*
G01*
X110724900Y-134449705D02*
G75*
G02*
X110224895Y-133949700I0J500005D01*
G01*
D11*
%TO.C,MX47*%
X307945000Y-76200000D03*
D12*
X309200000Y-73150000D03*
X319450000Y-73150000D03*
D11*
X320705000Y-76200000D03*
X307525000Y-79250000D03*
D13*
X311845000Y-79850000D03*
X316805000Y-79850000D03*
D11*
X321125000Y-79250000D03*
%TD*%
%TO.C,MX56*%
X141257500Y-95250000D03*
D12*
X142512500Y-92200000D03*
X152762500Y-92200000D03*
D11*
X154017500Y-95250000D03*
X140837500Y-98300000D03*
D13*
X145157500Y-98900000D03*
X150117500Y-98900000D03*
D11*
X154437500Y-98300000D03*
%TD*%
%TO.C,MX82*%
X17432500Y-133350000D03*
D12*
X18687500Y-130300000D03*
X28937500Y-130300000D03*
D11*
X30192500Y-133350000D03*
X17012500Y-136400000D03*
D13*
X21332500Y-137000000D03*
X26292500Y-137000000D03*
D11*
X30612500Y-136400000D03*
%TD*%
D14*
%TO.C,REF\u002A\u002A*%
X295549000Y-133367496D03*
%TD*%
D11*
%TO.C,MX30*%
X346045000Y-57150000D03*
D12*
X347300000Y-54100000D03*
X357550000Y-54100000D03*
D11*
X358805000Y-57150000D03*
X345625000Y-60200000D03*
D13*
X349945000Y-60800000D03*
X354905000Y-60800000D03*
D11*
X359225000Y-60200000D03*
%TD*%
%TO.C,MX42*%
X193645000Y-76200000D03*
D12*
X194900000Y-73150000D03*
X205150000Y-73150000D03*
D11*
X206405000Y-76200000D03*
X193225000Y-79250000D03*
D13*
X197545000Y-79850000D03*
X202505000Y-79850000D03*
D11*
X206825000Y-79250000D03*
%TD*%
%TO.C,MX31*%
X269845000Y-57150000D03*
D12*
X271100000Y-54100000D03*
X281350000Y-54100000D03*
D11*
X282605000Y-57150000D03*
X269425000Y-60200000D03*
D13*
X273745000Y-60800000D03*
X278705000Y-60800000D03*
D11*
X283025000Y-60200000D03*
%TD*%
%TO.C,MX90*%
X250795000Y-133350000D03*
D12*
X252050000Y-130300000D03*
X262300000Y-130300000D03*
D11*
X263555000Y-133350000D03*
X250375000Y-136400000D03*
D13*
X254695000Y-137000000D03*
X259655000Y-137000000D03*
D11*
X263975000Y-136400000D03*
%TD*%
D15*
%TO.C,D71*%
X334643001Y-22915552D03*
D16*
X332103001Y-22915552D03*
%TD*%
D11*
%TO.C,MX34*%
X41245000Y-76200000D03*
D12*
X42500000Y-73150000D03*
X52750000Y-73150000D03*
D11*
X54005000Y-76200000D03*
X40825000Y-79250000D03*
D13*
X45145000Y-79850000D03*
X50105000Y-79850000D03*
D11*
X54425000Y-79250000D03*
%TD*%
%TO.C,MX79*%
X253176250Y-114300000D03*
D12*
X254431250Y-111250000D03*
X264681250Y-111250000D03*
D11*
X265936250Y-114300000D03*
X252756250Y-117350000D03*
D13*
X257076250Y-117950000D03*
X262036250Y-117950000D03*
D11*
X266356250Y-117350000D03*
%TD*%
D14*
%TO.C,REF\u002A\u002A*%
X49899001Y-114217493D03*
%TD*%
D11*
%TO.C,MX9*%
X193645000Y-19050000D03*
D12*
X194900000Y-16000000D03*
X205150000Y-16000000D03*
D11*
X206405000Y-19050000D03*
X193225000Y-22100000D03*
D13*
X197545000Y-22700000D03*
X202505000Y-22700000D03*
D11*
X206825000Y-22100000D03*
%TD*%
%TO.C,MX39*%
X136495000Y-76200000D03*
D12*
X137750000Y-73150000D03*
X148000000Y-73150000D03*
D11*
X149255000Y-76200000D03*
X136075000Y-79250000D03*
D13*
X140395000Y-79850000D03*
X145355000Y-79850000D03*
D11*
X149675000Y-79250000D03*
%TD*%
%TO.C,MX28*%
X307945000Y-57150000D03*
D12*
X309200000Y-54100000D03*
X319450000Y-54100000D03*
D11*
X320705000Y-57150000D03*
X307525000Y-60200000D03*
D13*
X311845000Y-60800000D03*
X316805000Y-60800000D03*
D11*
X321125000Y-60200000D03*
%TD*%
%TO.C,MX43*%
X212695000Y-76200000D03*
D12*
X213950000Y-73150000D03*
X224200000Y-73150000D03*
D11*
X225455000Y-76200000D03*
X212275000Y-79250000D03*
D13*
X216595000Y-79850000D03*
X221555000Y-79850000D03*
D11*
X225875000Y-79250000D03*
%TD*%
%TO.C,MX57*%
X160307500Y-95250000D03*
D12*
X161562500Y-92200000D03*
X171812500Y-92200000D03*
D11*
X173067500Y-95250000D03*
X159887500Y-98300000D03*
D13*
X164207500Y-98900000D03*
X169167500Y-98900000D03*
D11*
X173487500Y-98300000D03*
%TD*%
%TO.C,MX36*%
X79345000Y-76200000D03*
D12*
X80600000Y-73150000D03*
X90850000Y-73150000D03*
D11*
X92105000Y-76200000D03*
X78925000Y-79250000D03*
D13*
X83245000Y-79850000D03*
X88205000Y-79850000D03*
D11*
X92525000Y-79250000D03*
%TD*%
%TO.C,MX55*%
X122207500Y-95250000D03*
D12*
X123462500Y-92200000D03*
X133712500Y-92200000D03*
D11*
X134967500Y-95250000D03*
X121787500Y-98300000D03*
D13*
X126107500Y-98900000D03*
X131067500Y-98900000D03*
D11*
X135387500Y-98300000D03*
%TD*%
%TO.C,MX20*%
X107920000Y-57150000D03*
D12*
X109175000Y-54100000D03*
X119425000Y-54100000D03*
D11*
X120680000Y-57150000D03*
X107500000Y-60200000D03*
D13*
X111820000Y-60800000D03*
X116780000Y-60800000D03*
D11*
X121100000Y-60200000D03*
%TD*%
%TO.C,MX53*%
X84107500Y-95250000D03*
D12*
X85362500Y-92200000D03*
X95612500Y-92200000D03*
D11*
X96867500Y-95250000D03*
X83687500Y-98300000D03*
D13*
X88007500Y-98900000D03*
X92967500Y-98900000D03*
D11*
X97287500Y-98300000D03*
%TD*%
%TO.C,MX77*%
X226982500Y-114300000D03*
D12*
X228237500Y-111250000D03*
X238487500Y-111250000D03*
D11*
X239742500Y-114300000D03*
X226562500Y-117350000D03*
D13*
X230882500Y-117950000D03*
X235842500Y-117950000D03*
D11*
X240162500Y-117350000D03*
%TD*%
%TO.C,MX4*%
X88870000Y-19050000D03*
D12*
X90125000Y-16000000D03*
X100375000Y-16000000D03*
D11*
X101630000Y-19050000D03*
X88450000Y-22100000D03*
D13*
X92770000Y-22700000D03*
X97730000Y-22700000D03*
D11*
X102050000Y-22100000D03*
%TD*%
%TO.C,MX48*%
X326995000Y-76200000D03*
D12*
X328250000Y-73150000D03*
X338500000Y-73150000D03*
D11*
X339755000Y-76200000D03*
X326575000Y-79250000D03*
D13*
X330895000Y-79850000D03*
X335855000Y-79850000D03*
D11*
X340175000Y-79250000D03*
%TD*%
%TO.C,MX23*%
X165070000Y-57150000D03*
D12*
X166325000Y-54100000D03*
X176575000Y-54100000D03*
D11*
X177830000Y-57150000D03*
X164650000Y-60200000D03*
D13*
X168970000Y-60800000D03*
X173930000Y-60800000D03*
D11*
X178250000Y-60200000D03*
%TD*%
%TO.C,MX38*%
X117445000Y-76200000D03*
D12*
X118700000Y-73150000D03*
X128950000Y-73150000D03*
D11*
X130205000Y-76200000D03*
X117025000Y-79250000D03*
D13*
X121345000Y-79850000D03*
X126305000Y-79850000D03*
D11*
X130625000Y-79250000D03*
%TD*%
%TO.C,MX75*%
X188882500Y-114300000D03*
D12*
X190137500Y-111250000D03*
X200387500Y-111250000D03*
D11*
X201642500Y-114300000D03*
X188462500Y-117350000D03*
D13*
X192782500Y-117950000D03*
X197742500Y-117950000D03*
D11*
X202062500Y-117350000D03*
%TD*%
%TO.C,MX35*%
X60295000Y-76200000D03*
D12*
X61550000Y-73150000D03*
X71800000Y-73150000D03*
D11*
X73055000Y-76200000D03*
X59875000Y-79250000D03*
D13*
X64195000Y-79850000D03*
X69155000Y-79850000D03*
D11*
X73475000Y-79250000D03*
%TD*%
%TO.C,MX54*%
X103157500Y-95250000D03*
D12*
X104412500Y-92200000D03*
X114662500Y-92200000D03*
D11*
X115917500Y-95250000D03*
X102737500Y-98300000D03*
D13*
X107057500Y-98900000D03*
X112017500Y-98900000D03*
D11*
X116337500Y-98300000D03*
%TD*%
%TO.C,MX91*%
X274607500Y-133350000D03*
D12*
X275862500Y-130300000D03*
X286112500Y-130300000D03*
D11*
X287367500Y-133350000D03*
X274187500Y-136400000D03*
D13*
X278507500Y-137000000D03*
X283467500Y-137000000D03*
D11*
X287787500Y-136400000D03*
%TD*%
%TO.C,MX37*%
X98395000Y-76200000D03*
D12*
X99650000Y-73150000D03*
X109900000Y-73150000D03*
D11*
X111155000Y-76200000D03*
X97975000Y-79250000D03*
D13*
X102295000Y-79850000D03*
X107255000Y-79850000D03*
D11*
X111575000Y-79250000D03*
%TD*%
D14*
%TO.C,REF\u002A\u002A*%
X19224000Y-44992493D03*
%TD*%
D11*
%TO.C,MX99*%
X146020000Y-133350000D03*
D12*
X147275000Y-130300000D03*
X157525000Y-130300000D03*
D11*
X158780000Y-133350000D03*
X145600000Y-136400000D03*
D13*
X149920000Y-137000000D03*
X154880000Y-137000000D03*
D11*
X159200000Y-136400000D03*
%TD*%
%TO.C,MX1*%
X12670000Y-19050000D03*
D12*
X13925000Y-16000000D03*
X24175000Y-16000000D03*
D11*
X25430000Y-19050000D03*
X12250000Y-22100000D03*
D13*
X16570000Y-22700000D03*
X21530000Y-22700000D03*
D11*
X25850000Y-22100000D03*
%TD*%
%TO.C,MX83*%
X41245000Y-133350000D03*
D12*
X42500000Y-130300000D03*
X52750000Y-130300000D03*
D11*
X54005000Y-133350000D03*
X40825000Y-136400000D03*
D13*
X45145000Y-137000000D03*
X50105000Y-137000000D03*
D11*
X54425000Y-136400000D03*
%TD*%
%TO.C,MX14*%
X260320000Y-57150000D03*
D12*
X261575000Y-54100000D03*
X271825000Y-54100000D03*
D11*
X273080000Y-57150000D03*
X259900000Y-60200000D03*
D13*
X264220000Y-60800000D03*
X269180000Y-60800000D03*
D11*
X273500000Y-60200000D03*
%TD*%
%TO.C,MX52*%
X65057500Y-95250000D03*
D12*
X66312500Y-92200000D03*
X76562500Y-92200000D03*
D11*
X77817500Y-95250000D03*
X64637500Y-98300000D03*
D13*
X68957500Y-98900000D03*
X73917500Y-98900000D03*
D11*
X78237500Y-98300000D03*
%TD*%
%TO.C,MX29*%
X326995000Y-57150000D03*
D12*
X328250000Y-54100000D03*
X338500000Y-54100000D03*
D11*
X339755000Y-57150000D03*
X326575000Y-60200000D03*
D13*
X330895000Y-60800000D03*
X335855000Y-60800000D03*
D11*
X340175000Y-60200000D03*
%TD*%
%TO.C,MX15*%
X12670000Y-57150000D03*
D12*
X13925000Y-54100000D03*
X24175000Y-54100000D03*
D11*
X25430000Y-57150000D03*
X12250000Y-60200000D03*
D13*
X16570000Y-60800000D03*
X21530000Y-60800000D03*
D11*
X25850000Y-60200000D03*
%TD*%
%TO.C,MX40*%
X155545000Y-76200000D03*
D12*
X156800000Y-73150000D03*
X167050000Y-73150000D03*
D11*
X168305000Y-76200000D03*
X155125000Y-79250000D03*
D13*
X159445000Y-79850000D03*
X164405000Y-79850000D03*
D11*
X168725000Y-79250000D03*
%TD*%
%TO.C,MX50*%
X15051250Y-95250000D03*
D12*
X16306250Y-92200000D03*
X26556250Y-92200000D03*
D11*
X27811250Y-95250000D03*
D13*
X18951250Y-98900000D03*
D11*
X28231250Y-98300000D03*
X14631250Y-98300000D03*
D13*
X23911250Y-98900000D03*
%TD*%
D14*
%TO.C,REF\u002A\u002A*%
X350874000Y-44992493D03*
%TD*%
%TO.C,REF\u002A\u002A*%
X350049000Y-120791989D03*
%TD*%
D11*
%TO.C,MX6*%
X136495000Y-19050000D03*
D12*
X137750000Y-16000000D03*
X148000000Y-16000000D03*
D11*
X149255000Y-19050000D03*
X136075000Y-22100000D03*
D13*
X140395000Y-22700000D03*
X145355000Y-22700000D03*
D11*
X149675000Y-22100000D03*
%TD*%
D14*
%TO.C,REF\u002A\u002A*%
X248584714Y-114217493D03*
%TD*%
D11*
%TO.C,MX72*%
X131732500Y-114300000D03*
D12*
X132987500Y-111250000D03*
X143237500Y-111250000D03*
D11*
X144492500Y-114300000D03*
X131312500Y-117350000D03*
D13*
X135632500Y-117950000D03*
X140592500Y-117950000D03*
D11*
X144912500Y-117350000D03*
%TD*%
%TO.C,MX18*%
X69820000Y-57150000D03*
D12*
X71075000Y-54100000D03*
X81325000Y-54100000D03*
D11*
X82580000Y-57150000D03*
X69400000Y-60200000D03*
D13*
X73720000Y-60800000D03*
X78680000Y-60800000D03*
D11*
X83000000Y-60200000D03*
%TD*%
%TO.C,MX25*%
X203170000Y-57150000D03*
D12*
X204425000Y-54100000D03*
X214675000Y-54100000D03*
D11*
X215930000Y-57150000D03*
X202750000Y-60200000D03*
D13*
X207070000Y-60800000D03*
X212030000Y-60800000D03*
D11*
X216350000Y-60200000D03*
%TD*%
%TO.C,MX3*%
X69820000Y-19050000D03*
D12*
X71075000Y-16000000D03*
X81325000Y-16000000D03*
D11*
X82580000Y-19050000D03*
X69400000Y-22100000D03*
D13*
X73720000Y-22700000D03*
X78680000Y-22700000D03*
D11*
X83000000Y-22100000D03*
%TD*%
D14*
%TO.C,REF\u002A\u002A*%
X128268687Y-19193441D03*
%TD*%
D11*
%TO.C,MX71*%
X112682500Y-114300000D03*
D12*
X113937500Y-111250000D03*
X124187500Y-111250000D03*
D11*
X125442500Y-114300000D03*
X112262500Y-117350000D03*
D13*
X116582500Y-117950000D03*
X121542500Y-117950000D03*
D11*
X125862500Y-117350000D03*
%TD*%
%TO.C,MX61*%
X236507500Y-95250000D03*
D12*
X237762500Y-92200000D03*
X248012500Y-92200000D03*
D11*
X249267500Y-95250000D03*
X236087500Y-98300000D03*
D13*
X240407500Y-98900000D03*
X245367500Y-98900000D03*
D11*
X249687500Y-98300000D03*
%TD*%
%TO.C,MX7*%
X155545000Y-19050000D03*
D12*
X156800000Y-16000000D03*
X167050000Y-16000000D03*
D11*
X168305000Y-19050000D03*
X155125000Y-22100000D03*
D13*
X159445000Y-22700000D03*
X164405000Y-22700000D03*
D11*
X168725000Y-22100000D03*
%TD*%
%TO.C,MX10*%
X222220000Y-19050000D03*
D12*
X223475000Y-16000000D03*
X233725000Y-16000000D03*
D11*
X234980000Y-19050000D03*
X221800000Y-22100000D03*
D13*
X226120000Y-22700000D03*
X231080000Y-22700000D03*
D11*
X235400000Y-22100000D03*
%TD*%
D15*
%TO.C,D81*%
X354141001Y-22915552D03*
D16*
X351601001Y-22915552D03*
%TD*%
D11*
%TO.C,MX8*%
X174595000Y-19050000D03*
D12*
X175850000Y-16000000D03*
X186100000Y-16000000D03*
D11*
X187355000Y-19050000D03*
X174175000Y-22100000D03*
D13*
X178495000Y-22700000D03*
X183455000Y-22700000D03*
D11*
X187775000Y-22100000D03*
%TD*%
%TO.C,MX2*%
X50770000Y-19050000D03*
D12*
X52025000Y-16000000D03*
X62275000Y-16000000D03*
D11*
X63530000Y-19050000D03*
X50350000Y-22100000D03*
D13*
X54670000Y-22700000D03*
X59630000Y-22700000D03*
D11*
X63950000Y-22100000D03*
%TD*%
%TO.C,MX19*%
X88870000Y-57150000D03*
D12*
X90125000Y-54100000D03*
X100375000Y-54100000D03*
D11*
X101630000Y-57150000D03*
X88450000Y-60200000D03*
D13*
X92770000Y-60800000D03*
X97730000Y-60800000D03*
D11*
X102050000Y-60200000D03*
%TD*%
%TO.C,MX65*%
X24576250Y-114300000D03*
D12*
X25831250Y-111250000D03*
X36081250Y-111250000D03*
D11*
X37336250Y-114300000D03*
X24156250Y-117350000D03*
D13*
X28476250Y-117950000D03*
X33436250Y-117950000D03*
D11*
X37756250Y-117350000D03*
%TD*%
%TO.C,MX12*%
X260320000Y-19050000D03*
D12*
X261575000Y-16000000D03*
X271825000Y-16000000D03*
D11*
X273080000Y-19050000D03*
X259900000Y-22100000D03*
D13*
X264220000Y-22700000D03*
X269180000Y-22700000D03*
D11*
X273500000Y-22100000D03*
%TD*%
%TO.C,MX45*%
X250795000Y-76200000D03*
D12*
X252050000Y-73150000D03*
X262300000Y-73150000D03*
D11*
X263555000Y-76200000D03*
X250375000Y-79250000D03*
D13*
X254695000Y-79850000D03*
X259655000Y-79850000D03*
D11*
X263975000Y-79250000D03*
%TD*%
%TO.C,MX26*%
X222220000Y-57150000D03*
D12*
X223475000Y-54100000D03*
X233725000Y-54100000D03*
D11*
X234980000Y-57150000D03*
X221800000Y-60200000D03*
D13*
X226120000Y-60800000D03*
X231080000Y-60800000D03*
D11*
X235400000Y-60200000D03*
%TD*%
%TO.C,MX11*%
X241270000Y-19050000D03*
D12*
X242525000Y-16000000D03*
X252775000Y-16000000D03*
D11*
X254030000Y-19050000D03*
X240850000Y-22100000D03*
D13*
X245170000Y-22700000D03*
X250130000Y-22700000D03*
D11*
X254450000Y-22100000D03*
%TD*%
%TO.C,MX44*%
X231745000Y-76200000D03*
D12*
X233000000Y-73150000D03*
X243250000Y-73150000D03*
D11*
X244505000Y-76200000D03*
X231325000Y-79250000D03*
D13*
X235645000Y-79850000D03*
X240605000Y-79850000D03*
D11*
X244925000Y-79250000D03*
%TD*%
%TO.C,MX107*%
X346045000Y-133350000D03*
D12*
X347300000Y-130300000D03*
X357550000Y-130300000D03*
D11*
X358805000Y-133350000D03*
X345625000Y-136400000D03*
D13*
X349945000Y-137000000D03*
X354905000Y-137000000D03*
D11*
X359225000Y-136400000D03*
%TD*%
%TO.C,MX62*%
X267463750Y-95250000D03*
D12*
X268718750Y-92200000D03*
X278968750Y-92200000D03*
D11*
X280223750Y-95250000D03*
X267043750Y-98300000D03*
D13*
X271363750Y-98900000D03*
X276323750Y-98900000D03*
D11*
X280643750Y-98300000D03*
%TD*%
%TO.C,MX24*%
X184120000Y-57150000D03*
D12*
X185375000Y-54100000D03*
X195625000Y-54100000D03*
D11*
X196880000Y-57150000D03*
X183700000Y-60200000D03*
D13*
X188020000Y-60800000D03*
X192980000Y-60800000D03*
D11*
X197300000Y-60200000D03*
%TD*%
%TO.C,MX76*%
X207932500Y-114300000D03*
D12*
X209187500Y-111250000D03*
X219437500Y-111250000D03*
D11*
X220692500Y-114300000D03*
X207512500Y-117350000D03*
D13*
X211832500Y-117950000D03*
X216792500Y-117950000D03*
D11*
X221112500Y-117350000D03*
%TD*%
%TO.C,MX17*%
X50770000Y-57150000D03*
D12*
X52025000Y-54100000D03*
X62275000Y-54100000D03*
D11*
X63530000Y-57150000D03*
X50350000Y-60200000D03*
D13*
X54670000Y-60800000D03*
X59630000Y-60800000D03*
D11*
X63950000Y-60200000D03*
%TD*%
%TO.C,MX49*%
X346045000Y-76200000D03*
D12*
X347300000Y-73150000D03*
X357550000Y-73150000D03*
D11*
X358805000Y-76200000D03*
X345625000Y-79250000D03*
D13*
X349945000Y-79850000D03*
X354905000Y-79850000D03*
D11*
X359225000Y-79250000D03*
%TD*%
%TO.C,MX59*%
X198407500Y-95250000D03*
D12*
X199662500Y-92200000D03*
X209912500Y-92200000D03*
D11*
X211167500Y-95250000D03*
X197987500Y-98300000D03*
D13*
X202307500Y-98900000D03*
X207267500Y-98900000D03*
D11*
X211587500Y-98300000D03*
%TD*%
D14*
%TO.C,REF\u002A\u002A*%
X268823999Y-76417495D03*
%TD*%
D15*
%TO.C,D55*%
X315152001Y-22915552D03*
D16*
X312612001Y-22915552D03*
%TD*%
D14*
%TO.C,REF\u002A\u002A*%
X213818686Y-19268440D03*
%TD*%
D11*
%TO.C,MX81*%
X326995000Y-114300000D03*
D12*
X328250000Y-111250000D03*
X338500000Y-111250000D03*
D11*
X339755000Y-114300000D03*
X326575000Y-117350000D03*
D13*
X330895000Y-117950000D03*
X335855000Y-117950000D03*
D11*
X340175000Y-117350000D03*
%TD*%
%TO.C,MX21*%
X126970000Y-57150000D03*
D12*
X128225000Y-54100000D03*
X138475000Y-54100000D03*
D11*
X139730000Y-57150000D03*
X126550000Y-60200000D03*
D13*
X130870000Y-60800000D03*
X135830000Y-60800000D03*
D11*
X140150000Y-60200000D03*
%TD*%
%TO.C,MX74*%
X169832500Y-114300000D03*
D12*
X171087500Y-111250000D03*
X181337500Y-111250000D03*
D11*
X182592500Y-114300000D03*
X169412500Y-117350000D03*
D13*
X173732500Y-117950000D03*
X178692500Y-117950000D03*
D11*
X183012500Y-117350000D03*
%TD*%
%TO.C,MX13*%
X279370000Y-19050000D03*
D12*
X280625000Y-16000000D03*
X290875000Y-16000000D03*
D11*
X292130000Y-19050000D03*
X278950000Y-22100000D03*
D13*
X283270000Y-22700000D03*
X288230000Y-22700000D03*
D11*
X292550000Y-22100000D03*
%TD*%
%TO.C,MX78*%
X262701250Y-114300000D03*
D12*
X263956250Y-111250000D03*
X274206250Y-111250000D03*
D11*
X275461250Y-114300000D03*
X262281250Y-117350000D03*
D13*
X266601250Y-117950000D03*
X271561250Y-117950000D03*
D17*
X275881250Y-117350000D03*
%TD*%
D11*
%TO.C,MX51*%
X46007500Y-95250000D03*
D12*
X47262500Y-92200000D03*
X57512500Y-92200000D03*
D11*
X58767500Y-95250000D03*
X45587500Y-98300000D03*
D13*
X49907500Y-98900000D03*
X54867500Y-98900000D03*
D11*
X59187500Y-98300000D03*
%TD*%
%TO.C,MX105*%
X307945000Y-133350000D03*
D12*
X309200000Y-130300000D03*
X319450000Y-130300000D03*
D11*
X320705000Y-133350000D03*
X307525000Y-136400000D03*
D13*
X311845000Y-137000000D03*
X316805000Y-137000000D03*
D11*
X321125000Y-136400000D03*
%TD*%
%TO.C,MX69*%
X74582500Y-114300000D03*
D12*
X75837500Y-111250000D03*
X86087500Y-111250000D03*
D11*
X87342500Y-114300000D03*
X74162500Y-117350000D03*
D13*
X78482500Y-117950000D03*
X83442500Y-117950000D03*
D11*
X87762500Y-117350000D03*
%TD*%
D14*
%TO.C,REF\u002A\u002A*%
X118499001Y-104617495D03*
%TD*%
D11*
%TO.C,MX84*%
X65057500Y-133350000D03*
D12*
X66312500Y-130300000D03*
X76562500Y-130300000D03*
D11*
X77817500Y-133350000D03*
X64637500Y-136400000D03*
D13*
X68957500Y-137000000D03*
X73917500Y-137000000D03*
D11*
X78237500Y-136400000D03*
%TD*%
%TO.C,MX58*%
X179357500Y-95250000D03*
D12*
X180612500Y-92200000D03*
X190862500Y-92200000D03*
D11*
X192117500Y-95250000D03*
X178937500Y-98300000D03*
D13*
X183257500Y-98900000D03*
X188217500Y-98900000D03*
D11*
X192537500Y-98300000D03*
%TD*%
%TO.C,MX22*%
X146020000Y-57150000D03*
D12*
X147275000Y-54100000D03*
X157525000Y-54100000D03*
D11*
X158780000Y-57150000D03*
X145600000Y-60200000D03*
D13*
X149920000Y-60800000D03*
X154880000Y-60800000D03*
D11*
X159200000Y-60200000D03*
%TD*%
%TO.C,MX32*%
X279370000Y-57150000D03*
D12*
X280625000Y-54100000D03*
X290875000Y-54100000D03*
D11*
X292130000Y-57150000D03*
X278950000Y-60200000D03*
D13*
X283270000Y-60800000D03*
X288230000Y-60800000D03*
D11*
X292550000Y-60200000D03*
%TD*%
%TO.C,MX60*%
X217457500Y-95250000D03*
D12*
X218712500Y-92200000D03*
X228962500Y-92200000D03*
D11*
X230217500Y-95250000D03*
X217037500Y-98300000D03*
D13*
X221357500Y-98900000D03*
X226317500Y-98900000D03*
D11*
X230637500Y-98300000D03*
%TD*%
%TO.C,MX27*%
X241270000Y-57150000D03*
D12*
X242525000Y-54100000D03*
X252775000Y-54100000D03*
D11*
X254030000Y-57150000D03*
X240850000Y-60200000D03*
D13*
X245170000Y-60800000D03*
X250130000Y-60800000D03*
D11*
X254450000Y-60200000D03*
%TD*%
%TO.C,MX33*%
X17432500Y-76200000D03*
D12*
X18687500Y-73150000D03*
X28937500Y-73150000D03*
D11*
X30192500Y-76200000D03*
X17012500Y-79250000D03*
D13*
X21332500Y-79850000D03*
X26292500Y-79850000D03*
D11*
X30612500Y-79250000D03*
%TD*%
%TO.C,MX68*%
X55532500Y-114300000D03*
D12*
X56787500Y-111250000D03*
X67037500Y-111250000D03*
D11*
X68292500Y-114300000D03*
X55112500Y-117350000D03*
D13*
X59432500Y-117950000D03*
X64392500Y-117950000D03*
D11*
X68712500Y-117350000D03*
%TD*%
%TO.C,MX80*%
X279370000Y-114300000D03*
D12*
X280625000Y-111250000D03*
X290875000Y-111250000D03*
D11*
X292130000Y-114300000D03*
D17*
X278950000Y-117350000D03*
D13*
X283270000Y-117950000D03*
X288230000Y-117950000D03*
D11*
X292550000Y-117350000D03*
%TD*%
%TO.C,MX70*%
X93632500Y-114300000D03*
D12*
X94887500Y-111250000D03*
X105137500Y-111250000D03*
D11*
X106392500Y-114300000D03*
X93212500Y-117350000D03*
D13*
X97532500Y-117950000D03*
X102492500Y-117950000D03*
D11*
X106812500Y-117350000D03*
%TD*%
%TO.C,MX46*%
X274607500Y-76200000D03*
D12*
X275862500Y-73150000D03*
X286112500Y-73150000D03*
D11*
X287367500Y-76200000D03*
X274187500Y-79250000D03*
D13*
X278507500Y-79850000D03*
X283467500Y-79850000D03*
D11*
X287787500Y-79250000D03*
%TD*%
%TO.C,MX89*%
X226982500Y-133350000D03*
D12*
X228237500Y-130300000D03*
X238487500Y-130300000D03*
D11*
X239742500Y-133350000D03*
X226562500Y-136400000D03*
D13*
X230882500Y-137000000D03*
X235842500Y-137000000D03*
D11*
X240162500Y-136400000D03*
%TD*%
%TO.C,MX41*%
X174595000Y-76200000D03*
D12*
X175850000Y-73150000D03*
X186100000Y-73150000D03*
D11*
X187355000Y-76200000D03*
X174175000Y-79250000D03*
D13*
X178495000Y-79850000D03*
X183455000Y-79850000D03*
D11*
X187775000Y-79250000D03*
%TD*%
%TO.C,MX63*%
X19813750Y-95250000D03*
D12*
X21068750Y-92200000D03*
X31318750Y-92200000D03*
D11*
X32573750Y-95250000D03*
X19393750Y-98300000D03*
D13*
X28673750Y-98900000D03*
X23713750Y-98900000D03*
D11*
X32993750Y-98300000D03*
%TD*%
%TO.C,MX16*%
X31720000Y-57150000D03*
D12*
X32975000Y-54100000D03*
X43225000Y-54100000D03*
D11*
X44480000Y-57150000D03*
X31300000Y-60200000D03*
D13*
X35620000Y-60800000D03*
X40580000Y-60800000D03*
D11*
X44900000Y-60200000D03*
%TD*%
%TO.C,MX5*%
X107920000Y-19050000D03*
D12*
X109175000Y-16000000D03*
X119425000Y-16000000D03*
D11*
X120680000Y-19050000D03*
X107500000Y-22100000D03*
D13*
X111820000Y-22700000D03*
X116780000Y-22700000D03*
D11*
X121100000Y-22100000D03*
%TD*%
%TO.C,MX73*%
X150782500Y-114300000D03*
D12*
X152037500Y-111250000D03*
X162287500Y-111250000D03*
D11*
X163542500Y-114300000D03*
X150362500Y-117350000D03*
D13*
X154682500Y-117950000D03*
X159642500Y-117950000D03*
D11*
X163962500Y-117350000D03*
%TD*%
%TO.C,MX106*%
X326995000Y-133350000D03*
D12*
X328250000Y-130300000D03*
X338500000Y-130300000D03*
D11*
X339755000Y-133350000D03*
X326575000Y-136400000D03*
D13*
X330895000Y-137000000D03*
X335855000Y-137000000D03*
D11*
X340175000Y-136400000D03*
%TD*%
D18*
%TO.C,SW1*%
X208550000Y-41906250D03*
D19*
X206010000Y-41906250D03*
%TD*%
M02*
