%TF.GenerationSoftware,KiCad,Pcbnew,8.0.4*%
%TF.CreationDate,2024-08-25T19:59:21+07:00*%
%TF.ProjectId,NCR80 ALPS SKFL,4e435238-3020-4414-9c50-5320534b464c,rev?*%
%TF.SameCoordinates,Original*%
%TF.FileFunction,Profile,NP*%
%FSLAX46Y46*%
G04 Gerber Fmt 4.6, Leading zero omitted, Abs format (unit mm)*
G04 Created by KiCad (PCBNEW 8.0.4) date 2024-08-25 19:59:21*
%MOMM*%
%LPD*%
G01*
G04 APERTURE LIST*
%TA.AperFunction,Profile*%
%ADD10C,0.200000*%
%TD*%
G04 APERTURE END LIST*
D10*
X192375107Y-132750100D02*
G75*
G02*
X192878841Y-132250121I499993J0D01*
G01*
X110724900Y-134449705D02*
G75*
G02*
X110224895Y-133949700I0J500005D01*
G01*
X249416200Y-118175000D02*
G75*
G02*
X249916251Y-118682171I-100J-500200D01*
G01*
X109064893Y-137724700D02*
G75*
G02*
X109568216Y-137224704I500007J0D01*
G01*
X111734893Y-137724700D02*
X111734893Y-141934700D01*
X111924900Y-132249705D02*
G75*
G02*
X112424895Y-132749700I0J-499995D01*
G01*
X279887084Y-81575000D02*
X279887100Y-82775000D01*
X120450107Y-133350121D02*
G75*
G02*
X114150107Y-133350121I-3150000J0D01*
G01*
X114150107Y-133350121D02*
G75*
G02*
X120450107Y-133350121I3150000J0D01*
G01*
X15621250Y-122885000D02*
X15621250Y-118675000D01*
X284137500Y-76200000D02*
G75*
G02*
X277837500Y-76200000I-3150000J0D01*
G01*
X277837500Y-76200000D02*
G75*
G02*
X284137500Y-76200000I3150000J0D01*
G01*
X195235100Y-137224705D02*
G75*
G02*
X195735095Y-137724705I0J-499995D01*
G01*
X281587100Y-81075000D02*
X280383100Y-81075000D01*
X259008800Y-104335000D02*
G75*
G02*
X258508750Y-103841900I100J500200D01*
G01*
X18291250Y-122885030D02*
G75*
G02*
X17791280Y-123384950I-499950J30D01*
G01*
X291060000Y-61025000D02*
G75*
G02*
X291560000Y-61525000I0J-500000D01*
G01*
X287008800Y-104335000D02*
X288678750Y-104335000D01*
X195735107Y-141934700D02*
X195735107Y-137724705D01*
X112424893Y-133949700D02*
G75*
G02*
X111924893Y-134449693I-499993J0D01*
G01*
X180424893Y-132749700D02*
G75*
G02*
X180921436Y-132249705I500007J0D01*
G01*
X253746250Y-118675000D02*
G75*
G02*
X254246250Y-118174950I500050J0D01*
G01*
X284416250Y-122885000D02*
X284416250Y-118668029D01*
X291560000Y-65735000D02*
G75*
G02*
X291060000Y-66235000I-500000J0D01*
G01*
X256416250Y-122885000D02*
X256416250Y-118668029D01*
X16121250Y-123385000D02*
G75*
G02*
X15621300Y-122885000I50J500000D01*
G01*
X280387100Y-83275000D02*
G75*
G02*
X279887100Y-82775000I0J500000D01*
G01*
X284416250Y-122885000D02*
G75*
G02*
X283916250Y-123385050I-500050J0D01*
G01*
X110724900Y-134449705D02*
X111924893Y-134449705D01*
X195736607Y-128974200D02*
X195736607Y-124764205D01*
X29429783Y-142082421D02*
X69973400Y-142082421D01*
X281587500Y-69124786D02*
G75*
G02*
X282087500Y-69621059I0J-500014D01*
G01*
X123875100Y-132250121D02*
G75*
G02*
X124375079Y-132750121I0J-499979D01*
G01*
X122675100Y-134450121D02*
G75*
G02*
X122175106Y-133955296I0J500021D01*
G01*
X43621250Y-122877900D02*
X43621250Y-118675000D01*
X182624893Y-133949700D02*
X182624893Y-132749700D01*
X282087084Y-82775000D02*
X282087084Y-81571001D01*
X360445172Y-140082300D02*
X360445172Y-13124997D01*
X109564900Y-129474705D02*
G75*
G02*
X109064895Y-128974700I0J500005D01*
G01*
X109564900Y-142434705D02*
G75*
G02*
X109064895Y-141934700I0J500005D01*
G01*
X109564900Y-129474705D02*
X111234893Y-129474705D01*
X180924900Y-134449705D02*
X182124893Y-134449705D01*
X110224893Y-132749700D02*
X110224893Y-133949700D01*
X281587500Y-69124786D02*
X280387500Y-69124800D01*
X279887084Y-81575000D02*
G75*
G02*
X280383100Y-81075000I500016J0D01*
G01*
X360445172Y-140082300D02*
G75*
G02*
X358459283Y-142082421I-2000172J0D01*
G01*
X260678700Y-99125000D02*
G75*
G02*
X261178749Y-99618029I-100J-500200D01*
G01*
X194075100Y-132250121D02*
G75*
G02*
X194575079Y-132750121I0J-499979D01*
G01*
X263560000Y-65735000D02*
G75*
G02*
X263060000Y-66235000I-500000J0D01*
G01*
X280387500Y-71324786D02*
X281591105Y-71324786D01*
X111234900Y-124264705D02*
G75*
G02*
X111734895Y-124764700I0J-499995D01*
G01*
X200749997Y-126684221D02*
X200749997Y-140883521D01*
X261178750Y-103835000D02*
X261178750Y-99618029D01*
X124377624Y-133950100D02*
G75*
G02*
X123825000Y-134450120I-502524J0D01*
G01*
X100647997Y-126684221D02*
X103947997Y-126684221D01*
X191237700Y-142082421D02*
G75*
G02*
X192969731Y-143082408I0J-1999979D01*
G01*
X195235100Y-137224705D02*
X193565100Y-137224705D01*
X94018896Y-37984392D02*
G75*
G02*
X86018896Y-37984392I-4000000J0D01*
G01*
X86018896Y-37984392D02*
G75*
G02*
X94018896Y-37984392I4000000J0D01*
G01*
X204049997Y-140883521D02*
X204049997Y-126684221D01*
X358445200Y-11124997D02*
G75*
G02*
X360445203Y-13124997I0J-2000003D01*
G01*
X247246250Y-118675000D02*
G75*
G02*
X247746250Y-118174950I500050J0D01*
G01*
X103947997Y-140883521D02*
X100647997Y-140883521D01*
X180924900Y-134449705D02*
G75*
G02*
X180424895Y-133949700I0J500005D01*
G01*
X109064893Y-141934700D02*
X109064893Y-137724700D01*
X260890000Y-61525000D02*
X260890000Y-65735000D01*
X69973400Y-142082421D02*
G75*
G02*
X71705441Y-143082425I0J-1999979D01*
G01*
X111734893Y-128974700D02*
G75*
G02*
X111234893Y-129474693I-499993J0D01*
G01*
X190176788Y-142082421D02*
X191237700Y-142082421D01*
X20558031Y-142082421D02*
G75*
G02*
X29429783Y-142082421I4435876J-5895308D01*
G01*
X282087500Y-70824800D02*
G75*
G02*
X281591105Y-71324787I-500000J0D01*
G01*
X111234900Y-137224705D02*
G75*
G02*
X111734895Y-137724700I0J-499995D01*
G01*
X123875100Y-132250121D02*
X122671359Y-132250121D01*
X111734893Y-141934700D02*
G75*
G02*
X111234893Y-142434693I-499993J0D01*
G01*
X182124900Y-132249705D02*
X180921436Y-132249705D01*
X282087500Y-70824800D02*
X282087500Y-69621059D01*
X73437500Y-144082421D02*
G75*
G02*
X71705440Y-143082426I0J2000021D01*
G01*
X180424893Y-132749700D02*
X180424893Y-133949700D01*
X16121250Y-118175000D02*
X17791200Y-118175000D01*
X282087084Y-82775000D02*
G75*
G02*
X281587084Y-83274984I-499984J0D01*
G01*
X193066607Y-124764200D02*
G75*
G02*
X193566600Y-124264207I499993J0D01*
G01*
X190649893Y-133350121D02*
G75*
G02*
X184349893Y-133350121I-3150000J0D01*
G01*
X184349893Y-133350121D02*
G75*
G02*
X190649893Y-133350121I3150000J0D01*
G01*
X283916100Y-118175000D02*
X282246250Y-118175000D01*
X288678600Y-99125000D02*
G75*
G02*
X289178749Y-99618029I0J-500200D01*
G01*
X247246250Y-122877900D02*
X247246250Y-118675000D01*
X281746250Y-118675000D02*
X281746250Y-122891900D01*
X285456432Y-37984392D02*
G75*
G02*
X277456432Y-37984392I-4000000J0D01*
G01*
X277456432Y-37984392D02*
G75*
G02*
X285456432Y-37984392I4000000J0D01*
G01*
X195236600Y-124264205D02*
G75*
G02*
X195736595Y-124764205I0J-499995D01*
G01*
X282246400Y-123385000D02*
X283916250Y-123385000D01*
X44121250Y-118175000D02*
X45791200Y-118175000D01*
X182124900Y-132249705D02*
G75*
G02*
X182624895Y-132749700I0J-499995D01*
G01*
X280387500Y-71324786D02*
G75*
G02*
X279887514Y-70824786I0J499986D01*
G01*
X291560000Y-61525000D02*
X291560000Y-65735000D01*
X193065107Y-137724700D02*
X193065107Y-141938016D01*
X192878841Y-132250121D02*
X194075100Y-132250121D01*
X194575107Y-132750121D02*
X194575107Y-133950100D01*
X260890000Y-61525000D02*
G75*
G02*
X261390000Y-61025000I500000J0D01*
G01*
X180243924Y-142082421D02*
X181298532Y-142082421D01*
X182624893Y-133949700D02*
G75*
G02*
X182124893Y-134449693I-499993J0D01*
G01*
X358445200Y-11124997D02*
X13025022Y-11124997D01*
X261178750Y-103835000D02*
G75*
G02*
X260678750Y-104335050I-500050J0D01*
G01*
X233630449Y-143082421D02*
G75*
G02*
X235369133Y-142082421I1732051J-999979D01*
G01*
X263060000Y-61025000D02*
X261390000Y-61025000D01*
X286508750Y-99625000D02*
G75*
G02*
X287008750Y-99124950I500050J0D01*
G01*
X247746250Y-118175000D02*
X249416200Y-118175000D01*
X13025021Y-142082421D02*
G75*
G02*
X11025019Y-140082421I-1J2000001D01*
G01*
X11025022Y-13124996D02*
X11025022Y-140082421D01*
X122175107Y-132750100D02*
X122175107Y-133955296D01*
X288746300Y-123385000D02*
G75*
G02*
X288246250Y-122891900I100J500200D01*
G01*
X46291250Y-118682171D02*
X46291250Y-122885000D01*
X200749997Y-140883521D02*
X204049997Y-140883521D01*
X15621250Y-118675000D02*
G75*
G02*
X16121250Y-118174950I500050J0D01*
G01*
X279887500Y-69624800D02*
X279887500Y-70824786D01*
X193066607Y-124764200D02*
X193066607Y-128977516D01*
X17791280Y-123385000D02*
X16121250Y-123385000D01*
X109568216Y-137224705D02*
X111234900Y-137224705D01*
X193565100Y-142434705D02*
G75*
G02*
X193065106Y-141938016I0J500005D01*
G01*
X263060000Y-61025000D02*
G75*
G02*
X263560000Y-61525000I0J-500000D01*
G01*
X290416100Y-118175000D02*
G75*
G02*
X290916249Y-118668029I0J-500200D01*
G01*
X258508750Y-99625000D02*
X258508750Y-103841900D01*
X289178750Y-103835000D02*
X289178750Y-99618029D01*
X17791200Y-118175000D02*
G75*
G02*
X18291251Y-118682171I-100J-500200D01*
G01*
X193566600Y-129474205D02*
X195236600Y-129474205D01*
X260678700Y-99125000D02*
X259008750Y-99125000D01*
X342042293Y-142082421D02*
G75*
G02*
X350920519Y-142082421I4439113J-5895272D01*
G01*
X192875100Y-134450121D02*
G75*
G02*
X192375106Y-133944904I0J500021D01*
G01*
X290916250Y-122885000D02*
G75*
G02*
X290416250Y-123385050I-500050J0D01*
G01*
X11025022Y-13124996D02*
G75*
G02*
X13025022Y-11125002I1999998J-4D01*
G01*
X100647997Y-140883521D02*
X100647997Y-126684221D01*
X288890000Y-65735000D02*
X288890000Y-61525000D01*
X247746400Y-123385000D02*
G75*
G02*
X247246248Y-122877900I0J500200D01*
G01*
X194701800Y-144082421D02*
G75*
G02*
X192969730Y-143082408I0J2000021D01*
G01*
X194575107Y-133950100D02*
G75*
G02*
X194075100Y-134450107I-500007J0D01*
G01*
X194701800Y-144082421D02*
X231898398Y-144082421D01*
X288746300Y-123385000D02*
X290416250Y-123385000D01*
X235369133Y-142082421D02*
X342042293Y-142082421D01*
X46291250Y-122885000D02*
G75*
G02*
X45791250Y-123385050I-500050J0D01*
G01*
X289390000Y-61025000D02*
X291060000Y-61025000D01*
X288678600Y-99125000D02*
X287008750Y-99125000D01*
X122175107Y-132750100D02*
G75*
G02*
X122671359Y-132250121I499993J0D01*
G01*
X255916100Y-118175000D02*
G75*
G02*
X256416249Y-118668029I0J-500200D01*
G01*
X110224893Y-132749700D02*
G75*
G02*
X110721584Y-132249704I500007J0D01*
G01*
X290416100Y-118175000D02*
X288746250Y-118175000D01*
X291060000Y-66235000D02*
X289390000Y-66235000D01*
X178505607Y-143082421D02*
G75*
G02*
X176773500Y-144082409I-1732107J1000121D01*
G01*
X178505607Y-143082421D02*
G75*
G02*
X180243924Y-142082421I1731993J-999879D01*
G01*
X282246400Y-123385000D02*
G75*
G02*
X281746250Y-122891900I0J500200D01*
G01*
X45791250Y-123385000D02*
X44121300Y-123385000D01*
X111924900Y-132249705D02*
X110721584Y-132249705D01*
X109064893Y-124764700D02*
G75*
G02*
X109561436Y-124264705I500007J0D01*
G01*
X195736607Y-128974200D02*
G75*
G02*
X195236600Y-129474207I-500007J0D01*
G01*
X111234893Y-142434705D02*
X109564900Y-142434705D01*
X281746250Y-118675000D02*
G75*
G02*
X282246250Y-118174950I500050J0D01*
G01*
X289178750Y-103835000D02*
G75*
G02*
X288678750Y-104335050I-500050J0D01*
G01*
X44121300Y-123385000D02*
G75*
G02*
X43621248Y-122877900I100J500200D01*
G01*
X43621250Y-118675000D02*
G75*
G02*
X44121250Y-118174950I500050J0D01*
G01*
X253746250Y-118675000D02*
X253746250Y-122891900D01*
X289390000Y-66235000D02*
G75*
G02*
X288890000Y-65735000I0J500000D01*
G01*
X45791200Y-118175000D02*
G75*
G02*
X46291251Y-118682171I-100J-500200D01*
G01*
X111234900Y-124264705D02*
X109561436Y-124264705D01*
X286508750Y-99625000D02*
X286508750Y-103841900D01*
X279887500Y-69624800D02*
G75*
G02*
X280387500Y-69124800I500000J0D01*
G01*
X111734893Y-128974700D02*
X111734893Y-124764700D01*
X281587100Y-81075000D02*
G75*
G02*
X282087084Y-81571001I0J-500000D01*
G01*
X249916250Y-122885000D02*
G75*
G02*
X249416250Y-123385050I-500050J0D01*
G01*
X195236600Y-124264205D02*
X193566600Y-124264205D01*
X290916250Y-122885000D02*
X290916250Y-118668029D01*
X122675100Y-134450121D02*
X123825000Y-134450121D01*
X181298532Y-142082421D02*
G75*
G02*
X190176788Y-142082421I4439128J-5895316D01*
G01*
X288246250Y-118675000D02*
G75*
G02*
X288746250Y-118174950I500050J0D01*
G01*
X103947997Y-126684221D02*
X103947997Y-140883521D01*
X195735107Y-141934700D02*
G75*
G02*
X195235100Y-142434707I-500007J0D01*
G01*
X112424893Y-133949700D02*
X112424893Y-132749700D01*
X233630449Y-143082421D02*
G75*
G02*
X231898398Y-144082409I-1732049J1000021D01*
G01*
X283916100Y-118175000D02*
G75*
G02*
X284416249Y-118668029I0J-500200D01*
G01*
X193065107Y-137724700D02*
G75*
G02*
X193565100Y-137224707I499993J0D01*
G01*
X263560000Y-65735000D02*
X263560000Y-61525000D01*
X261390000Y-66235000D02*
X263060000Y-66235000D01*
X280387100Y-83275000D02*
X281587084Y-83275000D01*
X249416250Y-123385000D02*
X247746400Y-123385000D01*
X193566600Y-129474205D02*
G75*
G02*
X193066606Y-128977516I0J500005D01*
G01*
X109064893Y-124764700D02*
X109064893Y-128974700D01*
X204049997Y-126684221D02*
X200749997Y-126684221D01*
X256416250Y-122885000D02*
G75*
G02*
X255916250Y-123385050I-500050J0D01*
G01*
X73437500Y-144082421D02*
X176773500Y-144082409D01*
X124375107Y-133950100D02*
X124375107Y-132750121D01*
X193565100Y-142434705D02*
X195235100Y-142434705D01*
X254246300Y-123385000D02*
X255916250Y-123385000D01*
X13025021Y-142082421D02*
X20558031Y-142082421D01*
X192375107Y-133944904D02*
X192375107Y-132750100D01*
X288890000Y-61525000D02*
G75*
G02*
X289390000Y-61025000I500000J0D01*
G01*
X255916100Y-118175000D02*
X254246250Y-118175000D01*
X18291250Y-118682171D02*
X18291250Y-122885030D01*
X194075100Y-134450121D02*
X192875100Y-134450121D01*
X350920519Y-142082421D02*
X358459283Y-142082421D01*
X288246250Y-118675000D02*
X288246250Y-122891900D01*
X261390000Y-66235000D02*
G75*
G02*
X260890000Y-65735000I0J500000D01*
G01*
X258508750Y-99625000D02*
G75*
G02*
X259008750Y-99124950I500050J0D01*
G01*
X249916250Y-118682171D02*
X249916250Y-122885000D01*
X259008800Y-104335000D02*
X260678750Y-104335000D01*
X254246300Y-123385000D02*
G75*
G02*
X253746250Y-122891900I100J500200D01*
G01*
X287008800Y-104335000D02*
G75*
G02*
X286508750Y-103841900I100J500200D01*
G01*
M02*
