M48
; DRILL file {KiCad 8.0.4} date 2024-08-25T19:59:39+0700
; FORMAT={-:-/ absolute / metric / decimal}
; #@! TF.CreationDate,2024-08-25T19:59:39+07:00
; #@! TF.GenerationSoftware,Kicad,Pcbnew,8.0.4
; #@! TF.FileFunction,Plated,1,2,PTH
FMAT,2
METRIC
; #@! TA.AperFunction,Plated,PTH,ViaDrill
T1C0.300
; #@! TA.AperFunction,Plated,PTH,ViaDrill
T2C0.350
; #@! TA.AperFunction,Plated,PTH,ComponentDrill
T3C0.350
; #@! TA.AperFunction,Plated,PTH,ComponentDrill
T4C0.900
; #@! TA.AperFunction,Plated,PTH,ComponentDrill
T5C1.000
; #@! TA.AperFunction,Plated,PTH,ComponentDrill
T6C1.400
; #@! TA.AperFunction,Plated,PTH,ComponentDrill
T7C1.500
; #@! TA.AperFunction,Plated,PTH,ComponentDrill
T8C1.600
; #@! TA.AperFunction,Plated,PTH,ComponentDrill
T9C2.700
%
G90
G05
T1
X27.975Y-48.637
X28.575Y-49.237
X29.175Y-49.837
X35.719Y-89.087
X35.719Y-127.188
X39.881Y-108.137
X161.925Y-49.837
X161.925Y-69.056
X182.35Y-40.3
X182.98Y-35.0
X183.45Y-37.0
X185.461Y-39.299
X185.577Y-37.597
X185.79Y-36.81
X188.1Y-31.5
X189.5Y-44.55
X193.5Y-31.7
X193.5Y-44.35
X194.5Y-31.7
X195.5Y-31.7
X195.7Y-38.3
X196.7Y-34.9
X196.7Y-35.9
X197.289Y-39.189
X197.311Y-39.889
X205.5Y-35.5
X266.7Y-50.006
X276.225Y-50.006
X285.75Y-14.287
X311.845Y-50.006
X330.895Y-50.006
X349.945Y-50.006
T2
X188.4Y-37.493
X192.638Y-37.366
T3
X189.225Y-36.825
X189.225Y-38.1
X189.225Y-39.375
X190.5Y-36.825
X190.5Y-38.1
X190.5Y-39.375
X191.775Y-36.825
X191.775Y-38.1
X191.775Y-39.375
T4
X312.612Y-22.916
X315.152Y-22.916
X332.103Y-22.916
X334.643Y-22.916
X351.601Y-22.916
X354.141Y-22.916
T5
X206.01Y-41.906
X208.55Y-41.906
T6
X12.67Y-19.05
X12.67Y-57.15
X13.925Y-16.0
X13.925Y-54.1
X15.051Y-95.25
X16.306Y-92.2
X17.432Y-76.2
X17.432Y-133.35
X18.688Y-73.15
X18.688Y-130.3
X19.814Y-95.25
X21.069Y-92.2
X24.175Y-16.0
X24.175Y-54.1
X24.576Y-114.3
X25.43Y-19.05
X25.43Y-57.15
X25.831Y-111.25
X26.556Y-92.2
X27.811Y-95.25
X28.938Y-73.15
X28.938Y-130.3
X30.192Y-76.2
X30.192Y-133.35
X31.319Y-92.2
X31.72Y-57.15
X32.574Y-95.25
X32.975Y-54.1
X36.081Y-111.25
X37.336Y-114.3
X41.245Y-76.2
X41.245Y-133.35
X42.5Y-73.15
X42.5Y-130.3
X43.225Y-54.1
X44.48Y-57.15
X46.008Y-95.25
X47.262Y-92.2
X50.77Y-19.05
X50.77Y-57.15
X52.025Y-16.0
X52.025Y-54.1
X52.75Y-73.15
X52.75Y-130.3
X54.005Y-76.2
X54.005Y-133.35
X55.532Y-114.3
X56.787Y-111.25
X57.512Y-92.2
X58.767Y-95.25
X60.295Y-76.2
X61.55Y-73.15
X62.275Y-16.0
X62.275Y-54.1
X63.53Y-19.05
X63.53Y-57.15
X65.057Y-95.25
X65.057Y-133.35
X66.312Y-92.2
X66.312Y-130.3
X67.037Y-111.25
X68.293Y-114.3
X69.82Y-19.05
X69.82Y-57.15
X71.075Y-16.0
X71.075Y-54.1
X71.8Y-73.15
X73.055Y-76.2
X74.582Y-114.3
X75.837Y-111.25
X76.562Y-92.2
X76.562Y-130.3
X77.817Y-95.25
X77.817Y-133.35
X79.345Y-76.2
X80.6Y-73.15
X81.325Y-16.0
X81.325Y-54.1
X82.58Y-19.05
X82.58Y-57.15
X84.108Y-95.25
X85.362Y-92.2
X86.087Y-111.25
X87.343Y-114.3
X88.87Y-19.05
X88.87Y-57.15
X90.125Y-16.0
X90.125Y-54.1
X90.85Y-73.15
X92.105Y-76.2
X93.632Y-114.3
X94.887Y-111.25
X95.612Y-92.2
X96.867Y-95.25
X98.395Y-76.2
X99.65Y-73.15
X100.375Y-16.0
X100.375Y-54.1
X101.63Y-19.05
X101.63Y-57.15
X103.157Y-95.25
X104.412Y-92.2
X105.137Y-111.25
X106.392Y-114.3
X107.92Y-19.05
X107.92Y-57.15
X109.175Y-16.0
X109.175Y-54.1
X109.9Y-73.15
X111.155Y-76.2
X112.682Y-114.3
X113.938Y-111.25
X114.662Y-92.2
X115.917Y-95.25
X117.445Y-76.2
X118.7Y-73.15
X119.425Y-16.0
X119.425Y-54.1
X120.68Y-19.05
X120.68Y-57.15
X122.207Y-95.25
X123.462Y-92.2
X124.188Y-111.25
X125.442Y-114.3
X126.97Y-57.15
X128.225Y-54.1
X128.95Y-73.15
X130.205Y-76.2
X131.732Y-114.3
X132.987Y-111.25
X133.713Y-92.2
X134.968Y-95.25
X136.495Y-19.05
X136.495Y-76.2
X137.75Y-16.0
X137.75Y-73.15
X138.475Y-54.1
X139.73Y-57.15
X141.257Y-95.25
X142.512Y-92.2
X143.237Y-111.25
X144.493Y-114.3
X146.02Y-57.15
X146.02Y-133.35
X147.275Y-54.1
X147.275Y-130.3
X148.0Y-16.0
X148.0Y-73.15
X149.255Y-19.05
X149.255Y-76.2
X150.782Y-114.3
X152.037Y-111.25
X152.762Y-92.2
X154.017Y-95.25
X155.545Y-19.05
X155.545Y-76.2
X156.8Y-16.0
X156.8Y-73.15
X157.525Y-54.1
X157.525Y-130.3
X158.78Y-57.15
X158.78Y-133.35
X160.308Y-95.25
X161.562Y-92.2
X162.287Y-111.25
X163.542Y-114.3
X165.07Y-57.15
X166.325Y-54.1
X167.05Y-16.0
X167.05Y-73.15
X168.305Y-19.05
X168.305Y-76.2
X169.832Y-114.3
X171.088Y-111.25
X171.812Y-92.2
X173.067Y-95.25
X174.595Y-19.05
X174.595Y-76.2
X175.85Y-16.0
X175.85Y-73.15
X176.575Y-54.1
X177.83Y-57.15
X179.357Y-95.25
X180.612Y-92.2
X181.338Y-111.25
X182.593Y-114.3
X184.12Y-57.15
X185.375Y-54.1
X186.1Y-16.0
X186.1Y-73.15
X187.355Y-19.05
X187.355Y-76.2
X188.882Y-114.3
X190.137Y-111.25
X190.862Y-92.2
X192.117Y-95.25
X193.645Y-19.05
X193.645Y-76.2
X194.9Y-16.0
X194.9Y-73.15
X195.625Y-54.1
X196.88Y-57.15
X198.407Y-95.25
X199.662Y-92.2
X200.387Y-111.25
X201.642Y-114.3
X203.17Y-57.15
X204.425Y-54.1
X205.15Y-16.0
X205.15Y-73.15
X206.405Y-19.05
X206.405Y-76.2
X207.933Y-114.3
X209.188Y-111.25
X209.912Y-92.2
X211.167Y-95.25
X212.695Y-76.2
X213.95Y-73.15
X214.675Y-54.1
X215.93Y-57.15
X217.457Y-95.25
X218.712Y-92.2
X219.438Y-111.25
X220.692Y-114.3
X222.22Y-19.05
X222.22Y-57.15
X223.475Y-16.0
X223.475Y-54.1
X224.2Y-73.15
X225.455Y-76.2
X226.982Y-114.3
X226.982Y-133.35
X228.237Y-111.25
X228.237Y-130.3
X228.962Y-92.2
X230.218Y-95.25
X231.745Y-76.2
X233.0Y-73.15
X233.725Y-16.0
X233.725Y-54.1
X234.98Y-19.05
X234.98Y-57.15
X236.507Y-95.25
X237.762Y-92.2
X238.487Y-111.25
X238.487Y-130.3
X239.742Y-114.3
X239.742Y-133.35
X241.27Y-19.05
X241.27Y-57.15
X242.525Y-16.0
X242.525Y-54.1
X243.25Y-73.15
X244.505Y-76.2
X248.012Y-92.2
X249.267Y-95.25
X250.795Y-76.2
X250.795Y-133.35
X252.05Y-73.15
X252.05Y-130.3
X252.775Y-16.0
X252.775Y-54.1
X253.176Y-114.3
X254.03Y-19.05
X254.03Y-57.15
X254.431Y-111.25
X260.32Y-19.05
X260.32Y-57.15
X261.575Y-16.0
X261.575Y-54.1
X262.3Y-73.15
X262.3Y-130.3
X262.701Y-114.3
X263.555Y-76.2
X263.555Y-133.35
X263.956Y-111.25
X264.681Y-111.25
X265.936Y-114.3
X267.464Y-95.25
X268.719Y-92.2
X269.845Y-57.15
X271.1Y-54.1
X271.825Y-16.0
X271.825Y-54.1
X273.08Y-19.05
X273.08Y-57.15
X274.206Y-111.25
X274.608Y-76.2
X274.608Y-133.35
X275.461Y-114.3
X275.863Y-73.15
X275.863Y-130.3
X278.969Y-92.2
X279.37Y-19.05
X279.37Y-57.15
X279.37Y-114.3
X280.224Y-95.25
X280.625Y-16.0
X280.625Y-54.1
X280.625Y-111.25
X281.35Y-54.1
X282.605Y-57.15
X286.113Y-73.15
X286.113Y-130.3
X287.368Y-76.2
X287.368Y-133.35
X290.875Y-16.0
X290.875Y-54.1
X290.875Y-111.25
X292.13Y-19.05
X292.13Y-57.15
X292.13Y-114.3
X307.945Y-57.15
X307.945Y-76.2
X307.945Y-133.35
X309.2Y-54.1
X309.2Y-73.15
X309.2Y-130.3
X319.45Y-54.1
X319.45Y-73.15
X319.45Y-130.3
X320.705Y-57.15
X320.705Y-76.2
X320.705Y-133.35
X326.995Y-57.15
X326.995Y-76.2
X326.995Y-114.3
X326.995Y-133.35
X328.25Y-54.1
X328.25Y-73.15
X328.25Y-111.25
X328.25Y-130.3
X338.5Y-54.1
X338.5Y-73.15
X338.5Y-111.25
X338.5Y-130.3
X339.755Y-57.15
X339.755Y-76.2
X339.755Y-114.3
X339.755Y-133.35
X346.045Y-57.15
X346.045Y-76.2
X346.045Y-133.35
X347.3Y-54.1
X347.3Y-73.15
X347.3Y-130.3
X357.55Y-54.1
X357.55Y-73.15
X357.55Y-130.3
X358.805Y-57.15
X358.805Y-76.2
X358.805Y-133.35
T7
X12.25Y-22.1
X12.25Y-60.2
X14.631Y-98.3
X17.012Y-79.25
X17.012Y-136.4
X19.394Y-98.3
X24.156Y-117.35
X25.85Y-22.1
X25.85Y-60.2
X28.231Y-98.3
X30.612Y-79.25
X30.612Y-136.4
X31.3Y-60.2
X32.994Y-98.3
X37.756Y-117.35
X40.825Y-79.25
X40.825Y-136.4
X44.9Y-60.2
X45.587Y-98.3
X50.35Y-22.1
X50.35Y-60.2
X54.425Y-79.25
X54.425Y-136.4
X55.112Y-117.35
X59.188Y-98.3
X59.875Y-79.25
X63.95Y-22.1
X63.95Y-60.2
X64.638Y-98.3
X64.638Y-136.4
X68.712Y-117.35
X69.4Y-22.1
X69.4Y-60.2
X73.475Y-79.25
X74.162Y-117.35
X78.237Y-98.3
X78.237Y-136.4
X78.925Y-79.25
X83.0Y-22.1
X83.0Y-60.2
X83.688Y-98.3
X87.763Y-117.35
X88.45Y-22.1
X88.45Y-60.2
X92.525Y-79.25
X93.212Y-117.35
X97.287Y-98.3
X97.975Y-79.25
X102.05Y-22.1
X102.05Y-60.2
X102.737Y-98.3
X106.812Y-117.35
X107.5Y-22.1
X107.5Y-60.2
X111.575Y-79.25
X112.262Y-117.35
X116.337Y-98.3
X117.025Y-79.25
X121.1Y-22.1
X121.1Y-60.2
X121.787Y-98.3
X125.862Y-117.35
X126.55Y-60.2
X130.625Y-79.25
X131.312Y-117.35
X135.387Y-98.3
X136.075Y-22.1
X136.075Y-79.25
X140.15Y-60.2
X140.838Y-98.3
X144.912Y-117.35
X145.6Y-60.2
X145.6Y-136.4
X149.675Y-22.1
X149.675Y-79.25
X150.362Y-117.35
X154.438Y-98.3
X155.125Y-22.1
X155.125Y-79.25
X159.2Y-60.2
X159.2Y-136.4
X159.887Y-98.3
X163.963Y-117.35
X164.65Y-60.2
X168.725Y-22.1
X168.725Y-79.25
X169.412Y-117.35
X173.487Y-98.3
X174.175Y-22.1
X174.175Y-79.25
X178.25Y-60.2
X178.938Y-98.3
X183.012Y-117.35
X183.7Y-60.2
X187.775Y-22.1
X187.775Y-79.25
X188.462Y-117.35
X192.537Y-98.3
X193.225Y-22.1
X193.225Y-79.25
X197.3Y-60.2
X197.987Y-98.3
X202.062Y-117.35
X202.75Y-60.2
X206.825Y-22.1
X206.825Y-79.25
X207.512Y-117.35
X211.587Y-98.3
X212.275Y-79.25
X216.35Y-60.2
X217.037Y-98.3
X221.112Y-117.35
X221.8Y-22.1
X221.8Y-60.2
X225.875Y-79.25
X226.562Y-117.35
X226.562Y-136.4
X230.637Y-98.3
X231.325Y-79.25
X235.4Y-22.1
X235.4Y-60.2
X236.087Y-98.3
X240.162Y-117.35
X240.162Y-136.4
X240.85Y-22.1
X240.85Y-60.2
X244.925Y-79.25
X249.688Y-98.3
X250.375Y-79.25
X250.375Y-136.4
X252.756Y-117.35
X254.45Y-22.1
X254.45Y-60.2
X259.9Y-22.1
X259.9Y-60.2
X262.281Y-117.35
X263.975Y-79.25
X263.975Y-136.4
X266.356Y-117.35
X267.044Y-98.3
X269.425Y-60.2
X273.5Y-22.1
X273.5Y-60.2
X274.188Y-79.25
X274.188Y-136.4
X275.881Y-117.35
X278.95Y-22.1
X278.95Y-60.2
X278.95Y-117.35
X280.644Y-98.3
X283.025Y-60.2
X287.787Y-79.25
X287.787Y-136.4
X292.55Y-22.1
X292.55Y-60.2
X292.55Y-117.35
X307.525Y-60.2
X307.525Y-79.25
X307.525Y-136.4
X321.125Y-60.2
X321.125Y-79.25
X321.125Y-136.4
X326.575Y-60.2
X326.575Y-79.25
X326.575Y-117.35
X326.575Y-136.4
X340.175Y-60.2
X340.175Y-79.25
X340.175Y-117.35
X340.175Y-136.4
X345.625Y-60.2
X345.625Y-79.25
X345.625Y-136.4
X359.225Y-60.2
X359.225Y-79.25
X359.225Y-136.4
T8
X16.57Y-22.7
X16.57Y-60.8
X18.951Y-98.9
X21.332Y-79.85
X21.332Y-137.0
X21.53Y-22.7
X21.53Y-60.8
X23.714Y-98.9
X23.911Y-98.9
X26.293Y-79.85
X26.293Y-137.0
X28.476Y-117.95
X28.674Y-98.9
X33.436Y-117.95
X35.62Y-60.8
X40.58Y-60.8
X45.145Y-79.85
X45.145Y-137.0
X49.907Y-98.9
X50.105Y-79.85
X50.105Y-137.0
X54.67Y-22.7
X54.67Y-60.8
X54.867Y-98.9
X59.432Y-117.95
X59.63Y-22.7
X59.63Y-60.8
X64.195Y-79.85
X64.392Y-117.95
X68.957Y-98.9
X68.957Y-137.0
X69.155Y-79.85
X73.72Y-22.7
X73.72Y-60.8
X73.917Y-98.9
X73.917Y-137.0
X78.483Y-117.95
X78.68Y-22.7
X78.68Y-60.8
X83.245Y-79.85
X83.442Y-117.95
X88.007Y-98.9
X88.205Y-79.85
X92.77Y-22.7
X92.77Y-60.8
X92.968Y-98.9
X97.532Y-117.95
X97.73Y-22.7
X97.73Y-60.8
X102.295Y-79.85
X102.492Y-117.95
X107.057Y-98.9
X107.255Y-79.85
X111.82Y-22.7
X111.82Y-60.8
X112.017Y-98.9
X116.582Y-117.95
X116.78Y-22.7
X116.78Y-60.8
X121.345Y-79.85
X121.542Y-117.95
X126.107Y-98.9
X126.305Y-79.85
X130.87Y-60.8
X131.067Y-98.9
X135.632Y-117.95
X135.83Y-60.8
X140.395Y-22.7
X140.395Y-79.85
X140.593Y-117.95
X145.157Y-98.9
X145.355Y-22.7
X145.355Y-79.85
X149.92Y-60.8
X149.92Y-137.0
X150.118Y-98.9
X154.683Y-117.95
X154.88Y-60.8
X154.88Y-137.0
X159.445Y-22.7
X159.445Y-79.85
X159.642Y-117.95
X164.207Y-98.9
X164.405Y-22.7
X164.405Y-79.85
X168.97Y-60.8
X169.167Y-98.9
X173.732Y-117.95
X173.93Y-60.8
X178.495Y-22.7
X178.495Y-79.85
X178.692Y-117.95
X183.257Y-98.9
X183.455Y-22.7
X183.455Y-79.85
X188.02Y-60.8
X188.218Y-98.9
X192.782Y-117.95
X192.98Y-60.8
X197.545Y-22.7
X197.545Y-79.85
X197.742Y-117.95
X202.308Y-98.9
X202.505Y-22.7
X202.505Y-79.85
X207.07Y-60.8
X207.267Y-98.9
X211.832Y-117.95
X212.03Y-60.8
X216.595Y-79.85
X216.792Y-117.95
X221.357Y-98.9
X221.555Y-79.85
X226.12Y-22.7
X226.12Y-60.8
X226.317Y-98.9
X230.882Y-117.95
X230.882Y-137.0
X231.08Y-22.7
X231.08Y-60.8
X235.645Y-79.85
X235.843Y-117.95
X235.843Y-137.0
X240.407Y-98.9
X240.605Y-79.85
X245.17Y-22.7
X245.17Y-60.8
X245.367Y-98.9
X250.13Y-22.7
X250.13Y-60.8
X254.695Y-79.85
X254.695Y-137.0
X257.076Y-117.95
X259.655Y-79.85
X259.655Y-137.0
X262.036Y-117.95
X264.22Y-22.7
X264.22Y-60.8
X266.601Y-117.95
X269.18Y-22.7
X269.18Y-60.8
X271.364Y-98.9
X271.561Y-117.95
X273.745Y-60.8
X276.324Y-98.9
X278.507Y-79.85
X278.507Y-137.0
X278.705Y-60.8
X283.27Y-22.7
X283.27Y-60.8
X283.27Y-117.95
X283.467Y-79.85
X283.467Y-137.0
X288.23Y-22.7
X288.23Y-60.8
X288.23Y-117.95
X311.845Y-60.8
X311.845Y-79.85
X311.845Y-137.0
X316.805Y-60.8
X316.805Y-79.85
X316.805Y-137.0
X330.895Y-60.8
X330.895Y-79.85
X330.895Y-117.95
X330.895Y-137.0
X335.855Y-60.8
X335.855Y-79.85
X335.855Y-117.95
X335.855Y-137.0
X349.945Y-60.8
X349.945Y-79.85
X349.945Y-137.0
X354.905Y-60.8
X354.905Y-79.85
X354.905Y-137.0
T9
X19.224Y-44.992
X49.899Y-114.217
X118.499Y-104.617
X128.269Y-19.193
X213.819Y-19.268
X248.585Y-114.217
X268.824Y-76.417
X295.549Y-133.367
X350.049Y-120.792
X350.874Y-44.992
M30
